<?xml version="1.0" encoding="UTF-8"?>
<!DOCTYPE svg PUBLIC "-//W3C//DTD SVG 1.1//EN" "http://www.w3.org/Graphics/SVG/1.1/DTD/svg11.dtd">
<svg xmlns="http://www.w3.org/2000/svg" version="1.1" width="1000px" height="250px" style="shape-rendering:geometricPrecision; text-rendering:geometricPrecision; image-rendering:optimizeQuality; fill-rule:evenodd; clip-rule:evenodd" xmlns:xlink="http://www.w3.org/1999/xlink">
<g><path style="opacity:0.686" fill="#020548" d="M 365.5,100.5 C 359.211,101.339 357.878,104.506 361.5,110C 361.43,110.765 361.097,111.265 360.5,111.5C 358.785,109.079 357.952,106.413 358,103.5C 359.553,99.7068 362.053,98.7068 365.5,100.5 Z"/></g>
<g><path style="opacity:0.995" fill="#030f65" d="M 461.5,108.5 C 459.468,107.952 458.468,106.619 458.5,104.5C 456.396,104.201 454.396,104.534 452.5,105.5C 453.815,106.895 453.481,107.895 451.5,108.5C 451.494,116.842 451.494,125.175 451.5,133.5C 453.621,133.325 455.621,133.659 457.5,134.5C 457.714,136.144 457.38,137.644 456.5,139C 454.444,139.311 452.444,139.811 450.5,140.5C 449.833,140.167 449.167,139.833 448.5,139.5C 447.334,127.514 447.167,115.514 448,103.5C 451.744,102.374 455.577,102.207 459.5,103C 460.464,104.725 461.131,106.559 461.5,108.5 Z"/></g>
<g><path style="opacity:0.998" fill="#010d6f" d="M 461.5,108.5 C 463.346,111.54 464.679,114.873 465.5,118.5C 465.618,121.688 466.451,124.688 468,127.5C 469,125.833 470,124.167 471,122.5C 471.424,124.976 472.257,127.309 473.5,129.5C 473.03,132.55 472.197,132.883 471,130.5C 470.725,133.058 471.225,135.392 472.5,137.5C 472.389,138.117 472.056,138.617 471.5,139C 469.167,139.667 466.833,139.667 464.5,139C 462.262,134.596 460.096,130.096 458,125.5C 457.502,128.482 457.335,131.482 457.5,134.5C 455.621,133.659 453.621,133.325 451.5,133.5C 451.494,125.175 451.494,116.842 451.5,108.5C 453.481,107.895 453.815,106.895 452.5,105.5C 454.396,104.534 456.396,104.201 458.5,104.5C 458.468,106.619 459.468,107.952 461.5,108.5 Z"/></g>
<g><path style="opacity:0.098" fill="#01001e" d="M 245.5,103.5 C 243.143,103.337 240.81,103.503 238.5,104C 237.62,105.356 237.286,106.856 237.5,108.5C 235.469,104.477 236.803,102.144 241.5,101.5C 243.026,101.994 244.359,102.661 245.5,103.5 Z"/></g>
<g><path style="opacity:1" fill="#020e73" d="M 267.5,111.5 C 266.717,114.776 265.717,118.109 264.5,121.5C 262.65,120.758 261.984,119.758 262.5,118.5C 259.884,119.744 258.217,121.744 257.5,124.5C 257.167,124.5 256.833,124.5 256.5,124.5C 254.143,124.663 251.81,124.497 249.5,124C 251.473,123.505 253.473,123.338 255.5,123.5C 255.5,122.167 255.5,120.833 255.5,119.5C 253.453,119.511 251.453,119.844 249.5,120.5C 248.287,120.253 247.62,119.586 247.5,118.5C 250.941,117.903 254.275,117.237 257.5,116.5C 257.833,116.5 258.167,116.5 258.5,116.5C 260.268,112.956 261.102,108.956 261,104.5C 263.027,104.014 265.193,104.014 267.5,104.5C 267.5,106.833 267.5,109.167 267.5,111.5 Z"/></g>
<g><path style="opacity:1" fill="#020d6b" d="M 487.5,103.5 C 488.114,115.751 487.447,127.751 485.5,139.5C 483.208,139.756 481.041,139.423 479,138.5C 478.828,134.129 478.328,129.796 477.5,125.5C 475.526,129.432 473.859,133.432 472.5,137.5C 471.225,135.392 470.725,133.058 471,130.5C 472.197,132.883 473.03,132.55 473.5,129.5C 472.257,127.309 471.424,124.976 471,122.5C 470,124.167 469,125.833 468,127.5C 466.451,124.688 465.618,121.688 465.5,118.5C 466.267,119.172 466.934,120.005 467.5,121C 468.332,121.688 468.998,121.521 469.5,120.5C 471.638,114.753 473.971,109.086 476.5,103.5C 480.315,102.192 483.981,102.192 487.5,103.5 Z"/></g>
<g><path style="opacity:0.986" fill="#030d68" d="M 420.5,99.5 C 423.998,98.9547 426.998,99.788 429.5,102C 428.949,105.665 428.615,109.331 428.5,113C 429.228,119.143 429.728,125.309 430,131.5C 432.603,133.949 433.103,136.782 431.5,140C 426.375,141.569 422.541,140.069 420,135.5C 419.189,123.424 419.355,111.424 420.5,99.5 Z"/></g>
<g><path style="opacity:0.994" fill="#000a64" d="M 347.5,112.5 C 347.821,114.048 348.821,114.715 350.5,114.5C 350.714,116.144 350.38,117.644 349.5,119C 347.527,119.495 345.527,119.662 343.5,119.5C 339.623,120.527 337.623,123.194 337.5,127.5C 336.133,126.645 336.133,124.978 337.5,122.5C 335.663,121.162 333.997,119.662 332.5,118C 333.148,116.56 333.481,115.06 333.5,113.5C 332.167,113.5 330.833,113.5 329.5,113.5C 329.666,117.514 329.499,121.514 329,125.5C 328.617,126.056 328.117,126.389 327.5,126.5C 327.197,121.57 327.531,116.737 328.5,112C 331.669,111.022 334.503,111.522 337,113.5C 340.483,111.496 343.983,111.163 347.5,112.5 Z"/></g>
<g><path style="opacity:0.999" fill="#020d72" d="M 749.5,110.5 C 751.218,111.224 753.052,111.891 755,112.5C 755.495,114.473 755.662,116.473 755.5,118.5C 752.881,118.232 750.381,118.565 748,119.5C 747.57,122.192 747.737,124.859 748.5,127.5C 746.184,126.053 743.851,125.387 741.5,125.5C 739.364,120.972 740.698,118.139 745.5,117C 740.221,114.715 739.221,111.215 742.5,106.5C 743.167,108.167 743.833,109.833 744.5,111.5C 745.167,110.5 745.833,109.5 746.5,108.5C 747.518,109.193 748.518,109.859 749.5,110.5 Z"/></g>
<g><path style="opacity:1" fill="#010a68" d="M 390.5,116.5 C 390.5,117.5 390.5,118.5 390.5,119.5C 388.533,119.261 386.699,119.594 385,120.5C 383.684,123.688 383.184,127.022 383.5,130.5C 380.488,128.497 377.155,127.497 373.5,127.5C 373.5,124.833 373.5,122.167 373.5,119.5C 371.418,119.528 369.584,118.861 368,117.5C 367.602,124.37 367.435,131.036 367.5,137.5C 366.671,129.343 366.171,121.01 366,112.5C 364.62,111.744 364.453,111.078 365.5,110.5C 366.167,110.5 366.833,110.5 367.5,110.5C 367.461,112.224 367.794,112.557 368.5,111.5C 369.492,111.672 370.158,111.338 370.5,110.5C 371.397,111.598 372.23,111.598 373,110.5C 373.813,108.564 374.313,106.564 374.5,104.5C 377.187,104.336 379.854,104.503 382.5,105C 383.249,106.734 383.749,108.567 384,110.5C 385.399,111.227 386.899,111.727 388.5,112C 389.099,113.622 389.766,115.122 390.5,116.5 Z"/></g>
<g><path style="opacity:1" fill="#050d5e" d="M 516.5,138.5 C 514.969,131.261 514.302,123.928 514.5,116.5C 512.876,116.36 511.71,117.027 511,118.5C 506.15,116.014 500.984,115.014 495.5,115.5C 496.096,117.398 496.096,119.065 495.5,120.5C 494.399,119.152 493.399,117.652 492.5,116C 496.142,112.83 500.475,111.33 505.5,111.5C 510.429,111.047 513.929,113.047 516,117.5C 515.996,123.827 516.83,129.993 518.5,136C 518.361,137.301 517.695,138.134 516.5,138.5 Z"/></g>
<g><path style="opacity:0.999" fill="#030b6b" d="M 365.5,100.5 C 368.39,101.899 369.89,104.232 370,107.5C 370.889,106.112 371.389,106.278 371.5,108C 371.095,108.945 370.428,109.612 369.5,110C 369.728,110.399 370.062,110.565 370.5,110.5C 370.158,111.338 369.492,111.672 368.5,111.5C 368.5,110.833 368.167,110.5 367.5,110.5C 366.833,109.167 366.167,109.167 365.5,110.5C 364.453,111.078 364.62,111.744 366,112.5C 366.171,121.01 366.671,129.343 367.5,137.5C 365.012,139.388 362.012,140.055 358.5,139.5C 357.861,129.773 358.528,120.44 360.5,111.5C 361.097,111.265 361.43,110.765 361.5,110C 357.878,104.506 359.211,101.339 365.5,100.5 Z"/></g>
<g><path style="opacity:0.624" fill="#010b4f" d="M 245.5,103.5 C 246.485,107.634 246.818,111.968 246.5,116.5C 250.167,116.5 253.833,116.5 257.5,116.5C 254.275,117.237 250.941,117.903 247.5,118.5C 246.5,118.5 245.5,118.5 244.5,118.5C 244.5,113.833 244.5,109.167 244.5,104.5C 242.533,104.261 240.699,104.594 239,105.5C 237.933,113.514 237.766,121.514 238.5,129.5C 238.66,131.355 237.993,132.688 236.5,133.5C 236.198,125.082 236.531,116.748 237.5,108.5C 237.286,106.856 237.62,105.356 238.5,104C 240.81,103.503 243.143,103.337 245.5,103.5 Z"/></g>
<g><path style="opacity:1" fill="#020b6e" d="M 319.5,112.5 C 320.456,113.659 321.456,114.826 322.5,116C 322.333,116.5 322.167,117 322,117.5C 321.692,116.692 321.192,116.025 320.5,115.5C 317.906,116.592 315.739,118.259 314,120.5C 313.586,120.043 313.086,119.709 312.5,119.5C 307.83,124.054 305.164,123.054 304.5,116.5C 307.546,116.817 309.213,115.484 309.5,112.5C 312.731,111.218 316.064,111.218 319.5,112.5 Z"/></g>
<g><path style="opacity:0.997" fill="#020c70" d="M 636.5,111.5 C 639.29,111.222 641.79,111.889 644,113.5C 648.667,110.833 653.333,110.833 658,113.5C 659.44,112.852 660.94,112.519 662.5,112.5C 664.833,112.5 667.167,112.5 669.5,112.5C 669.5,113.5 669.5,114.5 669.5,115.5C 667.5,115.5 665.5,115.5 663.5,115.5C 662.805,117.978 661.305,119.978 659,121.5C 658.501,127.157 658.334,132.824 658.5,138.5C 656.396,138.799 654.396,138.466 652.5,137.5C 652.121,135.787 651.121,134.787 649.5,134.5C 649.656,129.522 649.656,124.522 649.5,119.5C 648.041,119.433 646.708,119.766 645.5,120.5C 644.883,120.611 644.383,120.944 644,121.5C 643.501,127.157 643.334,132.824 643.5,138.5C 641.167,138.5 638.833,138.5 636.5,138.5C 636.483,129.509 636.483,120.509 636.5,111.5 Z"/></g>
<g><path style="opacity:0.997" fill="#010b6d" d="M 726.5,111.5 C 727.382,113.384 728.882,114.717 731,115.5C 732.356,123.095 732.856,130.762 732.5,138.5C 729.5,138.5 726.5,138.5 723.5,138.5C 723.004,133.498 722.671,128.498 722.5,123.5C 721.15,122.05 719.484,121.383 717.5,121.5C 717.666,127.176 717.499,132.843 717,138.5C 713.943,139.451 710.777,139.784 707.5,139.5C 707.334,130.494 707.5,121.494 708,112.5C 711.366,111.005 714.532,111.338 717.5,113.5C 720.193,111.73 723.193,111.063 726.5,111.5 Z"/></g>
<g><path style="opacity:1" fill="#010e70" d="M 280.5,112.5 C 283.624,112.689 286.957,112.856 290.5,113C 289.833,113.333 289.167,113.667 288.5,114C 291.384,115.037 292.05,116.871 290.5,119.5C 281.082,116.332 277.749,119.665 280.5,129.5C 279.5,129.5 278.5,129.5 277.5,129.5C 277.762,130.978 277.429,132.311 276.5,133.5C 276.167,133 275.833,132.5 275.5,132C 274.928,128.015 274.261,124.182 273.5,120.5C 274.45,116.587 276.783,113.92 280.5,112.5 Z"/></g>
<g><path style="opacity:0.997" fill="#010c72" d="M 516.5,138.5 C 511.034,138.356 507.7,135.69 506.5,130.5C 506.5,130.167 506.5,129.833 506.5,129.5C 506.5,128.5 506.5,127.5 506.5,126.5C 504.799,126.034 503.299,126.034 502,126.5C 501.5,126 501,125.5 500.5,125C 504.148,124.938 507.815,125.105 511.5,125.5C 511.719,124.325 511.386,123.325 510.5,122.5C 508.865,121.67 507.198,121.503 505.5,122C 506.993,120.844 506.826,120.01 505,119.5C 503,119.5 501,119.5 499,119.5C 497.936,120.421 497.436,121.421 497.5,122.5C 496.5,122.167 495.833,121.5 495.5,120.5C 496.096,119.065 496.096,117.398 495.5,115.5C 500.984,115.014 506.15,116.014 511,118.5C 511.71,117.027 512.876,116.36 514.5,116.5C 514.302,123.928 514.969,131.261 516.5,138.5 Z"/></g>
<g><path style="opacity:1" fill="#020e6f" d="M 531.5,121.5 C 531.5,124.5 531.5,127.5 531.5,130.5C 529.192,131.714 526.859,131.714 524.5,130.5C 525.325,129.614 526.325,129.281 527.5,129.5C 528.112,125.124 526.946,124.457 524,127.5C 523.667,128.5 523.333,129.5 523,130.5C 522.807,125.25 522.307,120.083 521.5,115C 523.594,113.648 525.927,113.148 528.5,113.5C 528.5,114.5 528.5,115.5 528.5,116.5C 530.144,116.714 531.644,116.38 533,115.5C 533.322,117.689 532.822,119.689 531.5,121.5 Z"/></g>
<g><path style="opacity:1" fill="#020d69" d="M 267.5,111.5 C 267.175,119.019 267.508,126.352 268.5,133.5C 269.138,135.46 269.138,137.293 268.5,139C 265.518,139.498 262.518,139.665 259.5,139.5C 259.666,135.154 259.499,130.821 259,126.5C 258.722,125.584 258.222,124.918 257.5,124.5C 258.217,121.744 259.884,119.744 262.5,118.5C 261.984,119.758 262.65,120.758 264.5,121.5C 265.717,118.109 266.717,114.776 267.5,111.5 Z"/></g>
<g><path style="opacity:1" fill="#020b6d" d="M 565.5,111.5 C 572.267,112.779 575.6,116.946 575.5,124C 573.338,128.531 574.338,132.031 578.5,134.5C 579.11,135.391 579.443,136.391 579.5,137.5C 579.5,137.833 579.5,138.167 579.5,138.5C 578.778,138.082 578.278,137.416 578,136.5C 577.333,137.833 576.667,139.167 576,140.5C 573.362,140.753 570.696,140.086 568,138.5C 563.197,140.791 558.364,140.958 553.5,139C 549.491,133.555 549.824,128.389 554.5,123.5C 557.127,122.895 559.793,122.395 562.5,122C 563.993,120.844 563.826,120.01 562,119.5C 561.645,120.509 560.812,121.176 559.5,121.5C 559.5,120.833 559.167,120.5 558.5,120.5C 557.312,119.316 556.145,119.316 555,120.5C 553.872,118.655 553.372,116.655 553.5,114.5C 557.614,113.49 561.614,112.49 565.5,111.5 Z M 561.5,129.5 C 562.833,129.5 564.167,129.5 565.5,129.5C 565.5,130.5 565.5,131.5 565.5,132.5C 564.167,132.5 562.833,132.5 561.5,132.5C 561.5,131.5 561.5,130.5 561.5,129.5 Z"/></g>
<g><path style="opacity:0.024" fill="#03044c" d="M 565.5,111.5 C 561.614,112.49 557.614,113.49 553.5,114.5C 553.372,116.655 553.872,118.655 555,120.5C 556.145,119.316 557.312,119.316 558.5,120.5C 559.167,120.5 559.5,120.833 559.5,121.5C 560.812,121.176 561.645,120.509 562,119.5C 563.826,120.01 563.993,120.844 562.5,122C 559.793,122.395 557.127,122.895 554.5,123.5C 552.977,120.365 552.31,117.032 552.5,113.5C 556.704,112.09 561.037,111.423 565.5,111.5 Z"/></g>
<g><path style="opacity:0.843" fill="#060a59" d="M 636.5,111.5 C 636.483,120.509 636.483,129.509 636.5,138.5C 638.833,138.5 641.167,138.5 643.5,138.5C 643.334,132.824 643.501,127.157 644,121.5C 644.383,120.944 644.883,120.611 645.5,120.5C 644.582,126.775 644.249,133.108 644.5,139.5C 641.482,139.665 638.482,139.498 635.5,139C 634.69,133.249 634.19,127.416 634,121.5C 633.5,122 633,122.5 632.5,123C 633.801,124.616 633.801,126.116 632.5,127.5C 631.215,124.411 630.549,121.078 630.5,117.5C 631.265,118.66 632.265,119.66 633.5,120.5C 634.318,117.893 634.818,115.226 635,112.5C 635.383,111.944 635.883,111.611 636.5,111.5 Z"/></g>
<g><path style="opacity:0.985" fill="#020e6d" d="M 247.5,118.5 C 247.62,119.586 248.287,120.253 249.5,120.5C 251.453,119.844 253.453,119.511 255.5,119.5C 255.5,120.833 255.5,122.167 255.5,123.5C 253.473,123.338 251.473,123.505 249.5,124C 251.81,124.497 254.143,124.663 256.5,124.5C 253.375,125.479 250.042,125.813 246.5,125.5C 245.515,129.634 245.182,133.968 245.5,138.5C 242.43,138.632 239.43,138.299 236.5,137.5C 236.5,136.167 236.5,134.833 236.5,133.5C 237.993,132.688 238.66,131.355 238.5,129.5C 237.766,121.514 237.933,113.514 239,105.5C 240.699,104.594 242.533,104.261 244.5,104.5C 244.5,109.167 244.5,113.833 244.5,118.5C 245.5,118.5 246.5,118.5 247.5,118.5 Z"/></g>
<g><path style="opacity:0.997" fill="#030c6d" d="M 407.5,112.5 C 407.414,113.496 407.748,114.329 408.5,115C 409.766,115.309 410.933,115.809 412,116.5C 412.499,121.489 412.666,126.489 412.5,131.5C 407.594,130.954 406.594,132.454 409.5,136C 408.244,136.417 407.577,137.25 407.5,138.5C 407.167,138.5 406.833,138.5 406.5,138.5C 405.167,138.5 403.833,138.5 402.5,138.5C 402.64,136.876 401.973,135.71 400.5,135C 402.101,134.727 403.601,134.227 405,133.5C 405.74,132.251 405.573,131.251 404.5,130.5C 402.544,129.199 400.877,129.699 399.5,132C 400.094,132.464 400.761,132.631 401.5,132.5C 400.432,133.434 399.099,133.768 397.5,133.5C 397.48,135.143 398.147,136.476 399.5,137.5C 397.647,138.76 395.814,138.76 394,137.5C 393.689,136.258 394.189,135.258 395.5,134.5C 394.609,133.41 393.609,133.41 392.5,134.5C 391.735,133.388 390.735,132.721 389.5,132.5C 390.4,128.419 392.4,124.919 395.5,122C 394.552,121.517 393.552,121.351 392.5,121.5C 392.598,119.447 391.931,117.78 390.5,116.5C 390.414,115.504 390.748,114.671 391.5,114C 396.816,111.567 402.15,111.067 407.5,112.5 Z M 404.5,130.5 C 404.179,132.048 403.179,132.715 401.5,132.5C 400.761,132.631 400.094,132.464 399.5,132C 400.877,129.699 402.544,129.199 404.5,130.5 Z"/></g>
<g><path style="opacity:0.531" fill="#030949" d="M 268.5,133.5 C 267.508,126.352 267.175,119.019 267.5,111.5C 267.5,109.167 267.5,106.833 267.5,104.5C 265.193,104.014 263.027,104.014 261,104.5C 261.102,108.956 260.268,112.956 258.5,116.5C 259.272,112.25 259.772,107.917 260,103.5C 262.667,102.167 265.333,102.167 268,103.5C 268.5,113.494 268.666,123.494 268.5,133.5 Z"/></g>
<g><path style="opacity:0.961" fill="#03095d" d="M 309.5,112.5 C 309.213,115.484 307.546,116.817 304.5,116.5C 305.164,123.054 307.83,124.054 312.5,119.5C 313.086,119.709 313.586,120.043 314,120.5C 315.739,118.259 317.906,116.592 320.5,115.5C 321.192,116.025 321.692,116.692 322,117.5C 322.167,117 322.333,116.5 322.5,116C 321.456,114.826 320.456,113.659 319.5,112.5C 321.903,112.695 323.57,113.862 324.5,116C 323.412,118.709 321.745,120.875 319.5,122.5C 318.25,122.423 317.417,121.756 317,120.5C 316.517,121.448 316.351,122.448 316.5,123.5C 313.463,123.448 310.796,124.448 308.5,126.5C 309.056,127.663 309.389,128.663 309.5,129.5C 309.5,130.167 309.833,130.5 310.5,130.5C 310.833,131.833 311.167,131.833 311.5,130.5C 314.297,131.808 314.131,132.475 311,132.5C 309.674,132.245 308.674,131.578 308,130.5C 307.004,132.744 305.504,134.577 303.5,136C 304.381,136.708 305.047,137.542 305.5,138.5C 303.564,137.741 301.731,136.741 300,135.5C 297.177,136.983 294.343,138.483 291.5,140C 288.304,140.805 285.304,140.638 282.5,139.5C 285.941,139.699 289.274,139.199 292.5,138C 291.833,137.667 291.167,137.333 290.5,137C 292.167,136.667 293.833,136.333 295.5,136C 294.5,135.667 293.5,135.333 292.5,135C 294.541,133.758 295.707,131.925 296,129.5C 296.388,130.428 297.055,131.095 298,131.5C 299.077,130.571 300.244,129.904 301.5,129.5C 300.065,130.985 300.232,132.318 302,133.5C 303.041,131.415 304.541,129.748 306.5,128.5C 301.525,124.156 301.192,119.323 305.5,114C 306.745,113.209 308.078,112.709 309.5,112.5 Z"/></g>
<g><path style="opacity:1" fill="#020d73" d="M 351.5,136.5 C 350.833,137.833 349.833,138.833 348.5,139.5C 347.602,138.842 346.602,138.176 345.5,137.5C 348.023,135.745 348.023,133.911 345.5,132C 347.24,128.91 347.574,125.743 346.5,122.5C 349.079,122.085 350.913,120.752 352,118.5C 352.494,120.134 352.66,121.801 352.5,123.5C 351.325,123.281 350.325,123.614 349.5,124.5C 350.441,126.772 351.774,128.772 353.5,130.5C 351.366,130.902 349.366,130.902 347.5,130.5C 349.69,132.007 351.024,134.007 351.5,136.5 Z"/></g>
<g><path style="opacity:0.994" fill="#020b69" d="M 598.5,111.5 C 602.63,110.704 605.797,112.038 608,115.5C 612.58,111.877 617.746,110.71 623.5,112C 626.595,112.935 628.929,114.769 630.5,117.5C 630.549,121.078 631.215,124.411 632.5,127.5C 632.539,128.756 632.039,129.756 631,130.5C 630.023,129.226 629.189,129.226 628.5,130.5C 627.603,129.402 626.77,129.402 626,130.5C 625.764,128.236 625.264,126.069 624.5,124C 624.957,123.586 625.291,123.086 625.5,122.5C 624.35,120.391 623.016,118.391 621.5,116.5C 621.833,115.833 622.167,115.167 622.5,114.5C 620.754,113.605 618.92,112.938 617,112.5C 612.167,113.333 609.333,116.167 608.5,121C 609.823,123.665 611.823,124.165 614.5,122.5C 615.429,121.311 615.762,119.978 615.5,118.5C 617.099,118.232 618.432,118.566 619.5,119.5C 617.663,119.639 617.33,120.306 618.5,121.5C 619.522,121.145 620.189,120.478 620.5,119.5C 621.828,120.91 621.495,122.076 619.5,123C 620.563,124.188 621.897,124.688 623.5,124.5C 623.5,125.5 623.5,126.5 623.5,127.5C 621.738,127.643 620.071,127.309 618.5,126.5C 616.833,127.333 615.167,128.167 613.5,129C 614.376,130.585 615.709,131.585 617.5,132C 614.957,132.14 612.623,132.806 610.5,134C 612.603,134.853 612.603,136.02 610.5,137.5C 604.829,132.649 603.495,126.816 606.5,120C 605.046,118.341 603.713,118.674 602.5,121C 603.285,125.916 601.285,129.416 596.5,131.5C 598.743,129.627 598.91,127.627 597,125.5C 596.617,126.056 596.117,126.389 595.5,126.5C 597.034,121.638 598.034,116.638 598.5,111.5 Z M 619.5,119.5 C 619.833,119.5 620.167,119.5 620.5,119.5C 620.189,120.478 619.522,121.145 618.5,121.5C 617.33,120.306 617.663,119.639 619.5,119.5 Z"/></g>
<g><path style="opacity:1" fill="#020a70" d="M 628.5,130.5 C 632.787,133.821 632.454,136.655 627.5,139C 621.445,141.364 615.778,140.864 610.5,137.5C 612.603,136.02 612.603,134.853 610.5,134C 612.623,132.806 614.957,132.14 617.5,132C 615.709,131.585 614.376,130.585 613.5,129C 615.167,128.167 616.833,127.333 618.5,126.5C 620.071,127.309 621.738,127.643 623.5,127.5C 623.5,126.5 623.5,125.5 623.5,124.5C 621.897,124.688 620.563,124.188 619.5,123C 621.495,122.076 621.828,120.91 620.5,119.5C 620.167,119.5 619.833,119.5 619.5,119.5C 618.432,118.566 617.099,118.232 615.5,118.5C 615.762,119.978 615.429,121.311 614.5,122.5C 611.823,124.165 609.823,123.665 608.5,121C 609.333,116.167 612.167,113.333 617,112.5C 618.92,112.938 620.754,113.605 622.5,114.5C 622.167,115.167 621.833,115.833 621.5,116.5C 623.016,118.391 624.35,120.391 625.5,122.5C 625.291,123.086 624.957,123.586 624.5,124C 625.264,126.069 625.764,128.236 626,130.5C 626.77,129.402 627.603,129.402 628.5,130.5 Z M 619.5,119.5 C 619.833,119.5 620.167,119.5 620.5,119.5C 620.189,120.478 619.522,121.145 618.5,121.5C 617.33,120.306 617.663,119.639 619.5,119.5 Z M 620.5,131.5 C 621.601,130.402 622.934,130.235 624.5,131C 623.122,132.334 621.789,132.501 620.5,131.5 Z"/></g>
<g><path style="opacity:0.996" fill="#010b64" d="M 598.5,111.5 C 598.034,116.638 597.034,121.638 595.5,126.5C 595.631,127.376 595.298,128.043 594.5,128.5C 593.614,127.675 593.281,126.675 593.5,125.5C 592.448,125.351 591.448,125.517 590.5,126C 589.636,130.568 587.136,132.068 583,130.5C 581.961,131.71 580.794,132.71 579.5,133.5C 579.821,132.183 580.154,130.849 580.5,129.5C 579.382,127.429 578.382,125.262 577.5,123C 578.039,120.518 579.039,118.352 580.5,116.5C 581.457,113.832 583.457,112.332 586.5,112C 590.486,111.501 594.486,111.334 598.5,111.5 Z M 591.5,118.5 C 592.551,119.222 593.218,120.222 593.5,121.5C 593.5,122.5 593.5,123.5 593.5,124.5C 590.739,125.085 589.073,124.085 588.5,121.5C 588.868,119.825 589.868,118.825 591.5,118.5 Z"/></g>
<g><path style="opacity:1" fill="#020c72" d="M 593.5,121.5 C 593.218,120.222 592.551,119.222 591.5,118.5C 587.808,117.578 586.141,119.245 586.5,123.5C 585.022,123.238 583.689,123.571 582.5,124.5C 583.891,126.936 583.391,127.602 581,126.5C 580.362,125.391 579.862,124.225 579.5,123C 580.287,120.901 580.62,118.734 580.5,116.5C 582.891,114.358 585.557,114.025 588.5,115.5C 589.711,114.726 589.711,113.893 588.5,113C 590.81,112.503 593.143,112.337 595.5,112.5C 596.055,116.012 595.388,119.012 593.5,121.5 Z"/></g>
<g><path style="opacity:0.963" fill="#020a6b" d="M 700.5,129.5 C 701.976,127.77 701.642,126.437 699.5,125.5C 698.276,126.766 696.943,127.933 695.5,129C 696.308,129.308 696.975,129.808 697.5,130.5C 694.868,131.257 692.368,131.59 690,131.5C 689.342,129.892 689.842,128.725 691.5,128C 690.833,127.667 690.167,127.333 689.5,127C 690.5,126.167 691.5,125.333 692.5,124.5C 691.147,123.476 690.48,122.143 690.5,120.5C 689.584,120.982 688.584,121.315 687.5,121.5C 685.144,120.457 682.81,119.457 680.5,118.5C 680.768,120.099 680.434,121.432 679.5,122.5C 679.5,121.5 679.5,120.5 679.5,119.5C 683.116,112.697 688.783,110.197 696.5,112C 704.176,115.521 706.843,121.354 704.5,129.5C 703.274,130.363 701.94,130.363 700.5,129.5 Z M 690.5,120.5 C 691.251,119.427 692.251,119.26 693.5,120C 692.648,121.728 691.648,121.895 690.5,120.5 Z"/></g>
<g><path style="opacity:1" fill="#010c6b" d="M 544.5,113.5 C 545.558,114.6 546.392,115.934 547,117.5C 547.282,121.039 547.782,124.539 548.5,128C 547.76,131.735 547.427,135.401 547.5,139C 544.446,139.821 541.446,139.655 538.5,138.5C 537.833,132.47 537.166,126.47 536.5,120.5C 537.158,119.602 537.824,118.602 538.5,117.5C 539.427,119.113 540.261,120.779 541,122.5C 541.662,120.187 542.162,117.854 542.5,115.5C 540.833,115.5 539.167,115.5 537.5,115.5C 537.5,114.5 537.5,113.5 537.5,112.5C 539.6,112.477 541.433,113.144 543,114.5C 543.765,114.43 544.265,114.097 544.5,113.5 Z"/></g>
<g><path style="opacity:1" fill="#030b67" d="M 544.5,113.5 C 544.265,114.097 543.765,114.43 543,114.5C 541.433,113.144 539.6,112.477 537.5,112.5C 537.5,113.5 537.5,114.5 537.5,115.5C 539.167,115.5 540.833,115.5 542.5,115.5C 542.162,117.854 541.662,120.187 541,122.5C 540.261,120.779 539.427,119.113 538.5,117.5C 537.824,118.602 537.158,119.602 536.5,120.5C 534.836,119.777 533.169,120.11 531.5,121.5C 532.822,119.689 533.322,117.689 533,115.5C 531.644,116.38 530.144,116.714 528.5,116.5C 528.5,115.5 528.5,114.5 528.5,113.5C 525.927,113.148 523.594,113.648 521.5,115C 522.307,120.083 522.807,125.25 523,130.5C 523.333,129.5 523.667,128.5 524,127.5C 526.946,124.457 528.112,125.124 527.5,129.5C 526.325,129.281 525.325,129.614 524.5,130.5C 526.859,131.714 529.192,131.714 531.5,130.5C 531.777,133.448 531.444,136.281 530.5,139C 527.24,139.784 524.073,139.617 521,138.5C 521.553,130.207 521.553,121.874 521,113.5C 524.333,110.833 527.667,110.833 531,113.5C 535.528,110.873 540.028,110.873 544.5,113.5 Z"/></g>
<g><path style="opacity:0.25" fill="#03085e" d="M 662.5,112.5 C 666.341,110.939 670.008,111.439 673.5,114C 675.668,117.506 676.835,121.339 677,125.5C 678.019,123.498 678.852,121.498 679.5,119.5C 679.5,120.5 679.5,121.5 679.5,122.5C 679.639,127.39 681.139,127.723 684,123.5C 688.836,128.337 687.836,130.337 681,129.5C 680.4,132.095 680.9,134.429 682.5,136.5C 681.542,136.047 680.708,135.381 680,134.5C 679.229,131.81 678.396,129.144 677.5,126.5C 676.673,130.459 676.173,134.459 676,138.5C 672.943,139.451 669.777,139.784 666.5,139.5C 665.833,133.167 665.167,126.833 664.5,120.5C 662.61,120.297 661.11,120.963 660,122.5C 659.894,128.313 659.728,133.98 659.5,139.5C 656.813,139.664 654.146,139.497 651.5,139C 650.418,137.67 649.751,136.17 649.5,134.5C 651.121,134.787 652.121,135.787 652.5,137.5C 654.396,138.466 656.396,138.799 658.5,138.5C 658.334,132.824 658.501,127.157 659,121.5C 661.305,119.978 662.805,117.978 663.5,115.5C 665.5,115.5 667.5,115.5 669.5,115.5C 669.5,114.5 669.5,113.5 669.5,112.5C 667.167,112.5 664.833,112.5 662.5,112.5 Z"/></g>
<g><path style="opacity:1" fill="#010d71" d="M 670.5,115.5 C 671.5,115.5 672.5,115.5 673.5,115.5C 674.358,123.132 674.691,130.799 674.5,138.5C 672.208,138.756 670.041,138.423 668,137.5C 667.5,135.5 667,133.5 666.5,131.5C 667.622,126.4 667.289,121.734 665.5,117.5C 667.781,117.923 669.448,117.256 670.5,115.5 Z"/></g>
<g><path style="opacity:0.999" fill="#010d62" d="M 301.5,127.5 C 299.874,125.757 297.874,125.257 295.5,126C 293.931,129.097 291.598,131.263 288.5,132.5C 291.645,129.258 292.145,125.592 290,121.5C 285.52,118.25 283.02,119.417 282.5,125C 282.318,128.82 283.985,131.32 287.5,132.5C 287.093,139.049 286.093,139.049 284.5,132.5C 281.212,131.462 280.879,132.128 283.5,134.5C 281.662,135.189 279.995,135.522 278.5,135.5C 279.193,136.518 279.859,137.518 280.5,138.5C 273.206,134.56 270.872,128.56 273.5,120.5C 274.261,124.182 274.928,128.015 275.5,132C 275.833,132.5 276.167,133 276.5,133.5C 277.429,132.311 277.762,130.978 277.5,129.5C 278.5,129.5 279.5,129.5 280.5,129.5C 277.749,119.665 281.082,116.332 290.5,119.5C 292.05,116.871 291.384,115.037 288.5,114C 289.167,113.667 289.833,113.333 290.5,113C 286.957,112.856 283.624,112.689 280.5,112.5C 293.791,108.963 300.791,113.963 301.5,127.5 Z M 288.5,132.5 C 288.167,132.5 287.833,132.5 287.5,132.5C 283.985,131.32 282.318,128.82 282.5,125C 283.02,119.417 285.52,118.25 290,121.5C 292.145,125.592 291.645,129.258 288.5,132.5 Z"/></g>
<g><path style="opacity:0.955" fill="#010e73" d="M 301.5,127.5 C 301.5,128.167 301.5,128.833 301.5,129.5C 300.244,129.904 299.077,130.571 298,131.5C 297.055,131.095 296.388,130.428 296,129.5C 295.707,131.925 294.541,133.758 292.5,135C 293.5,135.333 294.5,135.667 295.5,136C 293.833,136.333 292.167,136.667 290.5,137C 291.167,137.333 291.833,137.667 292.5,138C 289.274,139.199 285.941,139.699 282.5,139.5C 281.508,139.672 280.842,139.338 280.5,138.5C 279.859,137.518 279.193,136.518 278.5,135.5C 279.995,135.522 281.662,135.189 283.5,134.5C 280.879,132.128 281.212,131.462 284.5,132.5C 286.093,139.049 287.093,139.049 287.5,132.5C 287.833,132.5 288.167,132.5 288.5,132.5C 291.598,131.263 293.931,129.097 295.5,126C 297.874,125.257 299.874,125.757 301.5,127.5 Z"/></g>
<g><path style="opacity:0.878" fill="#020c71" d="M 337.5,127.5 C 338.308,129.22 339.308,130.887 340.5,132.5C 341.718,133.161 343.051,133.828 344.5,134.5C 343.167,135.167 341.833,135.833 340.5,136.5C 341.025,137.192 341.692,137.692 342.5,138C 340.256,138.05 338.589,138.883 337.5,140.5C 336.521,143.625 336.187,146.958 336.5,150.5C 334.801,150.66 333.134,150.494 331.5,150C 332.604,148.869 332.271,148.035 330.5,147.5C 329.345,144.554 329.179,141.554 330,138.5C 332.333,139.5 334,141.167 335,143.5C 335.273,140.607 336.107,137.94 337.5,135.5C 337.167,134.833 336.833,134.167 336.5,133.5C 335.167,134.5 333.833,135.5 332.5,136.5C 330.812,133.779 329.145,131.112 327.5,128.5C 327.5,127.833 327.5,127.167 327.5,126.5C 328.117,126.389 328.617,126.056 329,125.5C 329.499,121.514 329.666,117.514 329.5,113.5C 330.833,113.5 332.167,113.5 333.5,113.5C 333.481,115.06 333.148,116.56 332.5,118C 333.997,119.662 335.663,121.162 337.5,122.5C 336.133,124.978 336.133,126.645 337.5,127.5 Z"/></g>
<g><path style="opacity:0.977" fill="#030c63" d="M 347.5,112.5 C 351.855,113.84 354.355,116.84 355,121.5C 355.696,125.905 355.363,130.239 354,134.5C 353.292,135.381 352.458,136.047 351.5,136.5C 351.024,134.007 349.69,132.007 347.5,130.5C 349.366,130.902 351.366,130.902 353.5,130.5C 351.774,128.772 350.441,126.772 349.5,124.5C 350.325,123.614 351.325,123.281 352.5,123.5C 352.66,121.801 352.494,120.134 352,118.5C 350.913,120.752 349.079,122.085 346.5,122.5C 347.574,125.743 347.24,128.91 345.5,132C 348.023,133.911 348.023,135.745 345.5,137.5C 346.602,138.176 347.602,138.842 348.5,139.5C 344.901,140.344 341.234,140.677 337.5,140.5C 338.589,138.883 340.256,138.05 342.5,138C 341.692,137.692 341.025,137.192 340.5,136.5C 341.833,135.833 343.167,135.167 344.5,134.5C 343.051,133.828 341.718,133.161 340.5,132.5C 343.555,131.754 345.222,129.754 345.5,126.5C 344.827,124.149 344.16,121.816 343.5,119.5C 345.527,119.662 347.527,119.495 349.5,119C 350.38,117.644 350.714,116.144 350.5,114.5C 348.821,114.715 347.821,114.048 347.5,112.5 Z"/></g>
<g><path style="opacity:0.966" fill="#010a72" d="M 319.5,122.5 C 321.167,123.5 322.5,124.833 323.5,126.5C 323.296,129.518 322.963,132.518 322.5,135.5C 321.07,135.579 319.736,135.246 318.5,134.5C 317.406,135.868 317.74,137.035 319.5,138C 314.845,138.499 310.179,138.666 305.5,138.5C 305.047,137.542 304.381,136.708 303.5,136C 305.504,134.577 307.004,132.744 308,130.5C 308.674,131.578 309.674,132.245 311,132.5C 314.131,132.475 314.297,131.808 311.5,130.5C 311.167,130.5 310.833,130.5 310.5,130.5C 309.833,130.5 309.5,130.167 309.5,129.5C 309.389,128.663 309.056,127.663 308.5,126.5C 310.796,124.448 313.463,123.448 316.5,123.5C 316.351,122.448 316.517,121.448 317,120.5C 317.417,121.756 318.25,122.423 319.5,122.5 Z"/></g>
<g><path style="opacity:0.981" fill="#040c61" d="M 407.5,112.5 C 410.642,112.799 412.809,114.466 414,117.5C 414.032,123.705 414.866,129.705 416.5,135.5C 416.61,137.374 415.944,138.874 414.5,140C 412.078,140.135 409.745,139.635 407.5,138.5C 407.577,137.25 408.244,136.417 409.5,136C 406.594,132.454 407.594,130.954 412.5,131.5C 412.666,126.489 412.499,121.489 412,116.5C 410.933,115.809 409.766,115.309 408.5,115C 407.748,114.329 407.414,113.496 407.5,112.5 Z"/></g>
<g><path style="opacity:0.938" fill="#010b73" d="M 690.5,120.5 C 690.48,122.143 691.147,123.476 692.5,124.5C 691.5,125.333 690.5,126.167 689.5,127C 690.167,127.333 690.833,127.667 691.5,128C 689.842,128.725 689.342,129.892 690,131.5C 692.368,131.59 694.868,131.257 697.5,130.5C 696.975,129.808 696.308,129.308 695.5,129C 696.943,127.933 698.276,126.766 699.5,125.5C 701.642,126.437 701.976,127.77 700.5,129.5C 701.481,131.489 702.481,133.489 703.5,135.5C 699.926,140.047 695.26,141.547 689.5,140C 686.555,139.861 684.221,138.694 682.5,136.5C 680.9,134.429 680.4,132.095 681,129.5C 687.836,130.337 688.836,128.337 684,123.5C 681.139,127.723 679.639,127.39 679.5,122.5C 680.434,121.432 680.768,120.099 680.5,118.5C 682.81,119.457 685.144,120.457 687.5,121.5C 688.584,121.315 689.584,120.982 690.5,120.5 Z"/></g>
<g><path style="opacity:0.907" fill="#030b62" d="M 749.5,110.5 C 748.518,109.859 747.518,109.193 746.5,108.5C 745.833,109.5 745.167,110.5 744.5,111.5C 743.833,109.833 743.167,108.167 742.5,106.5C 739.221,111.215 740.221,114.715 745.5,117C 740.698,118.139 739.364,120.972 741.5,125.5C 743.851,125.387 746.184,126.053 748.5,127.5C 747.737,124.859 747.57,122.192 748,119.5C 750.381,118.565 752.881,118.232 755.5,118.5C 753.625,119.732 751.792,120.398 750,120.5C 749.502,123.482 749.335,126.482 749.5,129.5C 747.459,129.146 745.626,129.146 744,129.5C 743.386,131.879 743.053,134.212 743,136.5C 743.5,137 744,137.5 744.5,138C 747.817,138.498 751.15,138.665 754.5,138.5C 754.396,136.297 753.73,134.297 752.5,132.5C 752.435,132.062 752.601,131.728 753,131.5C 756.075,133.783 756.908,136.617 755.5,140C 744.726,142.543 739.226,138.377 739,127.5C 737.113,125.974 736.113,123.974 736,121.5C 735.176,118.118 735.343,114.784 736.5,111.5C 738.983,109.883 740.483,107.55 741,104.5C 743.354,104.108 745.854,104.108 748.5,104.5C 748.833,106.5 749.167,108.5 749.5,110.5 Z"/></g>
<g><path style="opacity:0.851" fill="#020e75" d="M 749.5,129.5 C 749.5,131.5 750.5,132.5 752.5,132.5C 753.73,134.297 754.396,136.297 754.5,138.5C 751.15,138.665 747.817,138.498 744.5,138C 744,137.5 743.5,137 743,136.5C 743.053,134.212 743.386,131.879 744,129.5C 745.626,129.146 747.459,129.146 749.5,129.5 Z"/></g>
<g><path style="opacity:0.98" fill="#050b61" d="M 323.5,126.5 C 326.196,131.3 325.196,135.466 320.5,139C 315.29,141.134 310.29,140.968 305.5,138.5C 310.179,138.666 314.845,138.499 319.5,138C 317.74,137.035 317.406,135.868 318.5,134.5C 319.736,135.246 321.07,135.579 322.5,135.5C 322.963,132.518 323.296,129.518 323.5,126.5 Z"/></g>
<g><path style="opacity:0.071" fill="#050e46" d="M 487.5,103.5 C 488.495,115.322 488.828,127.322 488.5,139.5C 487.5,139.5 486.5,139.5 485.5,139.5C 487.447,127.751 488.114,115.751 487.5,103.5 Z"/></g>
<g><path style="opacity:0.996" fill="#020b68" d="M 506.5,129.5 C 505.167,129.5 503.833,129.5 502.5,129.5C 502.5,130.5 502.5,131.5 502.5,132.5C 504.483,132.843 505.817,132.176 506.5,130.5C 507.7,135.69 511.034,138.356 516.5,138.5C 516.134,139.695 515.301,140.361 514,140.5C 512.333,139.833 510.667,139.167 509,138.5C 504.592,140.939 500.092,141.105 495.5,139C 489.984,132.748 490.651,127.248 497.5,122.5C 497.436,121.421 497.936,120.421 499,119.5C 501,119.5 503,119.5 505,119.5C 506.826,120.01 506.993,120.844 505.5,122C 507.198,121.503 508.865,121.67 510.5,122.5C 511.386,123.325 511.719,124.325 511.5,125.5C 507.815,125.105 504.148,124.938 500.5,125C 501,125.5 501.5,126 502,126.5C 503.299,126.034 504.799,126.034 506.5,126.5C 506.5,127.5 506.5,128.5 506.5,129.5 Z"/></g>
<g><path style="opacity:0.982" fill="#020a5f" d="M 327.5,128.5 C 329.145,131.112 330.812,133.779 332.5,136.5C 333.833,135.5 335.167,134.5 336.5,133.5C 336.833,134.167 337.167,134.833 337.5,135.5C 336.107,137.94 335.273,140.607 335,143.5C 334,141.167 332.333,139.5 330,138.5C 329.179,141.554 329.345,144.554 330.5,147.5C 332.271,148.035 332.604,148.869 331.5,150C 333.134,150.494 334.801,150.66 336.5,150.5C 336.187,146.958 336.521,143.625 337.5,140.5C 337.5,144.167 337.5,147.833 337.5,151.5C 334.552,151.777 331.719,151.444 329,150.5C 327.609,143.254 327.109,135.921 327.5,128.5 Z"/></g>
<g><path style="opacity:0.946" fill="#030c6a" d="M 373.5,127.5 C 377.155,127.497 380.488,128.497 383.5,130.5C 383.783,131.289 384.283,131.956 385,132.5C 386.764,132.011 388.264,132.011 389.5,132.5C 390.735,132.721 391.735,133.388 392.5,134.5C 393.609,133.41 394.609,133.41 395.5,134.5C 394.189,135.258 393.689,136.258 394,137.5C 395.814,138.76 397.647,138.76 399.5,137.5C 398.147,136.476 397.48,135.143 397.5,133.5C 399.099,133.768 400.432,133.434 401.5,132.5C 403.179,132.715 404.179,132.048 404.5,130.5C 405.573,131.251 405.74,132.251 405,133.5C 403.601,134.227 402.101,134.727 400.5,135C 401.973,135.71 402.64,136.876 402.5,138.5C 403.833,138.5 405.167,138.5 406.5,138.5C 401.367,141.404 396.367,141.071 391.5,137.5C 390.713,138.242 390.047,139.075 389.5,140C 378.634,142.617 373.301,138.451 373.5,127.5 Z"/></g>
<g><path style="opacity:0.318" fill="#08084a" d="M 246.5,125.5 C 246.666,130.179 246.499,134.845 246,139.5C 245.439,140.022 244.772,140.355 244,140.5C 241.865,139.873 239.698,139.373 237.5,139C 236.944,138.617 236.611,138.117 236.5,137.5C 239.43,138.299 242.43,138.632 245.5,138.5C 245.182,133.968 245.515,129.634 246.5,125.5 Z"/></g>
<g><path style="opacity:0.304" fill="#07054c" d="M 726.5,111.5 C 730.878,112.379 733.378,115.046 734,119.5C 733.321,125.513 733.487,131.513 734.5,137.5C 734.291,138.086 733.957,138.586 733.5,139C 730.905,139.226 728.405,139.726 726,140.5C 725.005,139.934 724.172,139.267 723.5,138.5C 726.5,138.5 729.5,138.5 732.5,138.5C 732.856,130.762 732.356,123.095 731,115.5C 728.882,114.717 727.382,113.384 726.5,111.5 Z"/></g>
<g><path style="opacity:1" fill="#020a70" d="M 595.5,126.5 C 596.117,126.389 596.617,126.056 597,125.5C 598.91,127.627 598.743,129.627 596.5,131.5C 598.37,132.956 600.37,134.289 602.5,135.5C 602.461,136.583 602.127,137.583 601.5,138.5C 602.325,139.386 603.325,139.719 604.5,139.5C 604.594,145.068 601.927,148.068 596.5,148.5C 596.719,147.325 596.386,146.325 595.5,145.5C 592.758,147.427 589.925,149.094 587,150.5C 584.104,149.633 581.271,148.633 578.5,147.5C 576.985,144.263 577.319,141.263 579.5,138.5C 580.833,138.167 580.833,137.833 579.5,137.5C 579.443,136.391 579.11,135.391 578.5,134.5C 578.5,133.833 578.833,133.5 579.5,133.5C 580.794,132.71 581.961,131.71 583,130.5C 587.136,132.068 589.636,130.568 590.5,126C 591.448,125.517 592.448,125.351 593.5,125.5C 593.281,126.675 593.614,127.675 594.5,128.5C 595.298,128.043 595.631,127.376 595.5,126.5 Z"/></g>
<g><path style="opacity:0.004" fill="#000000" d="M 591.5,143.5 C 590.833,143.5 590.167,143.5 589.5,143.5C 589.5,143.167 589.5,142.833 589.5,142.5C 590.925,140.969 591.591,141.302 591.5,143.5 Z"/></g>
<g><path style="opacity:1" fill="#01095e" d="M 602.5,135.5 C 606.816,140.803 606.149,145.636 600.5,150C 594.947,151.57 589.281,151.903 583.5,151C 581.119,150.777 579.453,149.61 578.5,147.5C 581.271,148.633 584.104,149.633 587,150.5C 589.925,149.094 592.758,147.427 595.5,145.5C 596.386,146.325 596.719,147.325 596.5,148.5C 601.927,148.068 604.594,145.068 604.5,139.5C 603.325,139.719 602.325,139.386 601.5,138.5C 602.127,137.583 602.461,136.583 602.5,135.5 Z"/></g>
</svg>
